<svg width="400" height="200" viewBox="0 0 400 200" fill="none" xmlns="http://www.w3.org/2000/svg">
<rect x="203.5" y="3.5" width="193" height="193" rx="26.5" stroke="white" stroke-width="7"/>
<rect x="229" y="65" width="37" height="111" fill="white"/>
<circle cx="247.5" cy="41.5" r="18.5" fill="white"/>
<path d="M306.5 76.5001H279V168.5H308C309 131.5 301.5 99.5001 324.5 99.5001C344.5 99.5001 340 122 340 168.5H368.5C368.5 119 375.5 86.9211 348.5 76.5001C321.5 66.0791 306.5 90.0001 306.5 89.0001V76.5001Z" fill="white" stroke="white"/>
<rect x="3.5" y="3.5" width="193" height="193" rx="26.5" stroke="#C4C4C4" stroke-width="7"/>
<rect x="29" y="65" width="37" height="111" fill="#C4C4C4"/>
<circle cx="47.5" cy="41.5" r="18.5" fill="#C4C4C4"/>
<path d="M106.5 76.5001H79V168.5H108C109 131.5 101.5 99.5001 124.5 99.5001C144.5 99.5001 140 122 140 168.5H168.5C168.5 119 175.5 86.9211 148.5 76.5001C121.5 66.0791 106.5 90.0001 106.5 89.0001V76.5001Z" fill="#C4C4C4" stroke="#C4C4C4"/>
</svg>
