<svg width="80" height="80" viewBox="0 0 80 80" fill="none" xmlns="http://www.w3.org/2000/svg">
<path d="M39 16L20 1L1 16H39Z" fill="#C4C4C4"/>
<rect x="9" y="4" width="4" height="7" fill="#C4C4C4"/>
<rect x="6.99997" y="15" width="8" height="22" fill="#C4C4C4"/>
<rect x="25" y="15" width="8" height="22" fill="#C4C4C4"/>
<rect x="14" y="30" width="12" height="7" fill="#C4C4C4"/>
<rect x="14" y="14" width="12" height="7" fill="#C4C4C4"/>
<path d="M79 16L60 1L41 16H79Z" fill="white"/>
<rect x="49" y="4" width="4" height="7" fill="white"/>
<rect x="47" y="15" width="8" height="22" fill="white"/>
<rect x="65" y="15" width="8" height="22" fill="white"/>
<rect x="54" y="30" width="12" height="7" fill="white"/>
<rect x="54" y="14" width="12" height="7" fill="white"/>
<path fill-rule="evenodd" clip-rule="evenodd" d="M32.4772 55.9349C32.0682 55.891 32.0713 55.7395 30.7427 55.0587L20.2361 64.6041C21.4995 65.261 21.9707 65.4245 22.7019 65.764C22.9712 67.7706 24.7824 68.9537 26.8033 68.1815C26.7201 68.4115 26.5955 68.6975 26.4523 69.0262C25.4107 71.4179 23.3855 76.068 29.1603 77.8284C36.198 79.9737 39.9315 58.7119 36.3092 56.3458C34.498 55.1627 33.1134 54.5198 32.4772 55.9349ZM31.5264 60.2827C32.7175 60.8358 32.2223 62.8295 30.8377 62.1866C29.4531 61.5437 30.1418 59.6398 31.5264 60.2827ZM34.5577 59.1245C35.7488 59.6776 35.2536 61.6713 33.869 61.0284C32.4844 60.3855 33.1731 58.4816 34.5577 59.1245ZM35.6278 62.7003C36.8189 63.2533 36.3237 65.247 34.9391 64.6041C33.5545 63.9612 34.2432 62.0574 35.6278 62.7003ZM32.6489 63.3697C33.84 63.9227 33.3448 65.9164 31.9602 65.2735C30.5756 64.6306 31.2643 62.7268 32.6489 63.3697Z" fill="#C4C4C4"/>
<path fill-rule="evenodd" clip-rule="evenodd" d="M3.01034 64.1467C-0.454822 60.3141 11.3866 44.7734 16.4983 46.8049C16.7696 46.9127 17.0259 47.0064 17.2647 47.0936C18.5258 47.5543 19.2949 47.8353 19.1627 49.0683C20.2198 49.5592 22.1309 50.6414 24.2563 51.8155L13.1367 62.0084C12.6265 61.6389 12.6734 61.5451 12.5832 60.7234C12.5568 60.7653 12.2509 61.4784 12.2101 61.5451C11.3474 62.956 7.59101 68.8869 3.01034 64.1467ZM16.1314 50.2266C15.7048 49.6864 14.6319 49.2326 14.2678 49.5323C13.7364 49.9697 13.1525 50.896 13.1525 50.896L11.768 50.2531C11.289 50.2017 10.7051 51.1279 10.6527 51.6167C11.0793 52.1569 11.9849 52.7485 11.9849 52.7485C11.9849 52.7485 11.3486 54.1635 11.2962 54.6523C11.7228 55.1925 12.7353 55.696 13.1598 55.3466C13.6912 54.9092 14.275 53.9829 14.275 53.9829L16.1911 54.1884C16.7225 53.7509 16.7749 53.2621 16.8273 52.7733C16.4007 52.2331 15.4951 51.6416 15.4951 51.6416C15.4951 51.6416 16.079 50.7154 16.1314 50.2266Z" fill="#C4C4C4"/>
<path fill-rule="evenodd" clip-rule="evenodd" d="M28.4262 49.0355C27.9628 49.4989 22.7019 54.3808 22.7019 54.3808L13.1367 62.935C13.1367 62.935 11.2835 64.325 10.8201 65.2516C10.4057 66.0804 12.6734 68.9581 13.8021 68.7532C15.0262 68.531 17.3927 66.5371 18.6965 65.2516L30.2794 54.5953L32.1326 52.7421L33.9859 48.5722L33.9859 48.1089L34.4492 47.6456L33.9859 47.1823L33.5226 47.6456L32.596 47.6456C32.596 47.6456 29.3528 48.5722 28.4262 49.0355ZM31.206 52.2788C29.8161 52.0015 28.8894 51.3521 28.8894 49.4989C28.8894 49.0356 28.4261 49.0356 28.4261 49.9622C28.4261 51.3521 30.2794 53.2054 31.206 52.7421C31.206 52.7421 31.6693 52.4648 31.206 52.2788ZM24.2563 55.3466L26.5729 53.2054L27.9628 54.1884L25.6462 56.4486L24.2563 55.3466Z" fill="#C4C4C4"/>
<path fill-rule="evenodd" clip-rule="evenodd" d="M72.4772 55.9349C72.0682 55.891 72.0713 55.7395 70.7427 55.0587L60.2361 64.6041C61.4995 65.261 61.9707 65.4245 62.7019 65.764C62.9712 67.7706 64.7824 68.9537 66.8033 68.1815C66.7201 68.4115 66.5955 68.6975 66.4523 69.0262C65.4107 71.4179 63.3855 76.068 69.1603 77.8284C76.198 79.9737 79.9315 58.7119 76.3092 56.3458C74.498 55.1627 73.1134 54.5198 72.4772 55.9349ZM71.5264 60.2827C72.7175 60.8358 72.2223 62.8295 70.8377 62.1866C69.4531 61.5437 70.1418 59.6398 71.5264 60.2827ZM74.5577 59.1245C75.7488 59.6776 75.2536 61.6713 73.869 61.0284C72.4844 60.3855 73.1731 58.4816 74.5577 59.1245ZM75.6278 62.7003C76.8189 63.2533 76.3237 65.247 74.9391 64.6041C73.5545 63.9612 74.2432 62.0574 75.6278 62.7003ZM72.6489 63.3697C73.84 63.9227 73.3448 65.9164 71.9602 65.2735C70.5756 64.6306 71.2643 62.7268 72.6489 63.3697Z" fill="white"/>
<path fill-rule="evenodd" clip-rule="evenodd" d="M43.0103 64.1467C39.5452 60.3141 51.3866 44.7734 56.4983 46.8049C56.7696 46.9127 57.0259 47.0064 57.2647 47.0936C58.5258 47.5543 59.2949 47.8353 59.1627 49.0683C60.2198 49.5592 62.1309 50.6414 64.2563 51.8155L53.1367 62.0084C52.6265 61.6389 52.6734 61.5451 52.5832 60.7234C52.5568 60.7653 52.2509 61.4784 52.2101 61.5451C51.3474 62.956 47.591 68.8869 43.0103 64.1467ZM56.1314 50.2266C55.7048 49.6864 54.6319 49.2326 54.2678 49.5323C53.7364 49.9697 53.1525 50.896 53.1525 50.896L51.768 50.2531C51.289 50.2017 50.7051 51.1279 50.6527 51.6167C51.0793 52.1569 51.9849 52.7485 51.9849 52.7485C51.9849 52.7485 51.3486 54.1635 51.2962 54.6523C51.7228 55.1925 52.7353 55.696 53.1598 55.3466C53.6912 54.9092 54.275 53.9829 54.275 53.9829L56.1911 54.1884C56.7225 53.7509 56.7749 53.2621 56.8273 52.7733C56.4007 52.2331 55.4951 51.6416 55.4951 51.6416C55.4951 51.6416 56.079 50.7154 56.1314 50.2266Z" fill="white"/>
<path fill-rule="evenodd" clip-rule="evenodd" d="M68.4262 49.0355C67.9628 49.4989 62.7019 54.3808 62.7019 54.3808L53.1367 62.935C53.1367 62.935 51.2835 64.325 50.8201 65.2516C50.4057 66.0804 52.6734 68.9581 53.8021 68.7532C55.0262 68.531 57.3927 66.5371 58.6965 65.2516L70.2794 54.5953L72.1326 52.7421L73.9859 48.5722L73.9859 48.1089L74.4492 47.6456L73.9859 47.1823L73.5226 47.6456L72.596 47.6456C72.596 47.6456 69.3528 48.5722 68.4262 49.0355ZM71.206 52.2788C69.8161 52.0015 68.8894 51.3521 68.8894 49.4989C68.8894 49.0356 68.4261 49.0356 68.4261 49.9622C68.4261 51.3521 70.2794 53.2054 71.206 52.7421C71.206 52.7421 71.6693 52.4648 71.206 52.2788ZM64.2563 55.3466L66.5729 53.2054L67.9628 54.1884L65.6462 56.4486L64.2563 55.3466Z" fill="white"/>
</svg>
