<svg width="80" height="120" viewBox="0 0 80 120" fill="none" xmlns="http://www.w3.org/2000/svg">
<path d="M33.5 84.4813C26.3 77.9321 18 85.5728 19.5 93.2136C19.5 94.3051 5.49999 89.939 2.5 83.3897C-1.5 88.8474 3.49999 94.3051 4.49999 95.3966C4.49999 95.3966 2.99999 95.3966 0.999996 94.3051C0.499997 100.309 4.99999 101.946 7.49999 103.583C7.49999 103.583 5.99999 104.129 3.99999 103.583C5.99999 109.041 9 109.041 11.5 110.132C8.5 112.315 8.00002 112.861 0 113.953C31.5 129.78 36.5 94.3051 36 91.0305C39.5 89.3932 40 86.6643 40 86.1186C40 86.1186 37 87.1634 35.5 87.2101C35.5 87.2101 39.5 83.9355 39 82.2982L33.5 84.4813Z" fill="#C4C4C4"/>
<path d="M73.5 84.4813C66.3 77.9321 58 85.5728 59.5 93.2136C59.5 94.3051 45.5 89.939 42.5 83.3897C38.5 88.8474 43.5 94.3051 44.5 95.3966C44.5 95.3966 43 95.3966 41 94.3051C40.5 100.309 45 101.946 47.5 103.583C47.5 103.583 46 104.129 44 103.583C46 109.041 49 109.041 51.5 110.132C48.5 112.315 48 112.861 40 113.953C71.5 129.78 76.5 94.3051 76 91.0305C79.5 89.3932 80 86.6643 80 86.1186C80 86.1186 77 87.1634 75.5 87.2101C75.5 87.2101 79.5 83.9355 79 82.2982L73.5 84.4813Z" fill="white"/>
<circle cx="20" cy="60" r="9.5" stroke="#C4C4C4" stroke-width="3"/>
<circle cx="60" cy="60" r="9.5" stroke="white" stroke-width="3"/>
<circle cx="31" cy="49" r="3" fill="#C4C4C4"/>
<circle cx="71" cy="49" r="3" fill="white"/>
<rect x="1.5" y="41.5" width="37" height="37" rx="4.5" stroke="#C4C4C4" stroke-width="3"/>
<rect x="41.5" y="41.5" width="37" height="37" rx="4.5" stroke="white" stroke-width="3"/>
<rect x="41" y="1" width="38" height="38" rx="3" stroke="white" stroke-width="2"/>
<rect x="46" y="14" width="7" height="21" fill="white"/>
<circle cx="49.5" cy="8.30003" r="3.7" fill="white"/>
<path d="M61.4678 14.2108H56V35H61.7661C61.9649 26.6391 60.9882 19.4081 65.0468 19.4081C69.0234 19.4081 68.1286 24.4924 68.1286 35H73.7953C73.7953 23.8145 75.3354 16.9886 69.967 14.6337C64.5986 12.2789 61.4678 17.2614 61.4678 17.0354V14.2108Z" fill="white"/>
<rect x="1" y="1.00002" width="38" height="38" rx="3" stroke="#C4C4C4" stroke-width="2"/>
<rect x="6" y="14" width="7" height="21" fill="#C4C4C4"/>
<circle cx="9.49999" cy="8.30003" r="3.7" fill="#C4C4C4"/>
<path d="M21.4678 14.2108H16V35H21.7661C21.9649 26.6391 20.9882 19.4081 25.0468 19.4081C29.0234 19.4081 28.1286 24.4924 28.1286 35H33.7953C33.7953 23.8145 35.3354 16.9886 29.967 14.6337C24.5986 12.2789 21.4678 17.2614 21.4678 17.0354V14.2108Z" fill="#C4C4C4"/>
</svg>
